<svg xmlns="http://www.w3.org/2000/svg" style="display: none;"><symbol id="water" viewBox="0 0 512.001 512.001"><title>water</title><path style="fill:#68CCEA;" d="M286.434,221.76c-0.039-0.105-0.084-0.205-0.135-0.304L172.172,1.486 C171.698,0.574,170.757,0,169.728,0s-1.97,0.574-2.444,1.486L53.157,221.456c-0.052,0.099-0.097,0.2-0.135,0.304 c-12.028,32.205-10.797,67.164,3.469,98.437c14.265,31.275,39.857,55.12,72.061,67.146c13.19,4.926,27.014,7.642,41.092,8.07 c0.028,0.001,0.056,0.001,0.084,0.001s0.056,0,0.084-0.001c14.077-0.43,27.902-3.145,41.09-8.07 c32.203-12.026,57.796-35.872,72.062-67.146C297.229,288.924,298.462,253.965,286.434,221.76z"/><g> <path style="fill:#5ABCE2;" d="M178.528,373.344c-27.357-26.958-42.578-62.959-42.861-101.371 c-0.001-0.123,0.006-0.248,0.021-0.371L166.361,3.266L53.157,221.456c-0.052,0.099-0.097,0.2-0.135,0.304 c-12.028,32.205-10.797,67.164,3.469,98.437c14.265,31.275,39.857,55.12,72.061,67.146c13.19,4.926,27.014,7.642,41.092,8.07 c0.028,0.001,0.056,0.001,0.084,0.001s0.056,0,0.084-0.001c10.263-0.313,20.389-1.856,30.235-4.57 C192.412,385.765,185.206,379.922,178.528,373.344z"/> <path style="fill:#5ABCE2;" d="M463.084,280.78c-0.039-0.104-0.084-0.205-0.135-0.304l-56.273-108.461 c-0.474-0.912-1.415-1.486-2.444-1.486c-1.029,0-1.97,0.573-2.444,1.486l-56.273,108.461c-0.052,0.099-0.097,0.2-0.135,0.304 c-6.061,16.228-5.44,33.844,1.749,49.602c7.187,15.759,20.083,27.775,36.313,33.836c6.646,2.481,13.613,3.849,20.706,4.066 c0.028,0.001,0.056,0.001,0.084,0.001s0.056,0,0.084-0.001c7.091-0.217,14.058-1.585,20.705-4.066 C458.516,351.709,475.592,314.278,463.084,280.78z"/> </g><path style="fill:#68CCEA;" d="M463.084,280.78c-0.039-0.104-0.084-0.205-0.135-0.304l-56.273-108.461 c-0.474-0.912-1.415-1.486-2.444-1.486c-0.005,0-0.011,0.002-0.017,0.002l-22.152,128.821c-0.021,0.121-0.034,0.243-0.039,0.365 c-0.938,19.068,5.604,37.356,18.422,51.499c5.492,6.06,11.86,11.038,18.84,14.836c1.934-0.524,3.848-1.128,5.735-1.833 C458.516,351.709,475.592,314.278,463.084,280.78z"/><path style="fill:#5ABCE2;" d="M350.91,452.145l-37.495-72.271c-0.474-0.912-1.415-1.486-2.444-1.486 c-1.029,0-1.97,0.574-2.444,1.486l-37.5,72.271c-0.052,0.099-0.097,0.202-0.135,0.305c-8.511,22.796,3.108,48.268,25.904,56.783 c4.523,1.686,9.264,2.618,14.09,2.767c0.029,0.001,0.057,0.001,0.085,0.001s0.056,0,0.085-0.001 c4.822-0.149,9.562-1.079,14.089-2.768c22.795-8.513,34.414-33.986,25.901-56.783C351.007,452.344,350.961,452.243,350.91,452.145z"/><path style="fill:#68CCEA;" d="M351.045,452.449c-0.039-0.105-0.084-0.206-0.135-0.304l-37.495-72.271 c-0.474-0.912-1.415-1.486-2.444-1.486c-0.293,0-0.574,0.057-0.844,0.145l-15.394,90.566c-0.022,0.122-0.034,0.249-0.041,0.374 c-0.806,17.134,7.18,32.682,19.971,42.268c3.576-0.403,7.09-1.243,10.482-2.508C347.94,500.718,359.559,475.245,351.045,452.449z"/></symbol><symbol id="sun" viewBox="0 0 420 420"><title>sun</title><polygon style="fill:#F5C525;" points="420,210 375.774,247.857 399.238,301.145 342.926,315.986 340.945,374.184 283.764,363.211 256.724,414.779 210,380 163.276,414.779 136.236,363.211 79.055,374.184 77.073,315.986 20.762,301.144 44.226,247.858 0,210 44.226,172.143 20.762,118.855 77.074,104.014 79.055,45.816 136.236,56.789 163.276,5.221 210,40 256.723,5.221 283.764,56.789 340.945,45.816 342.927,104.014 399.238,118.856 375.774,172.142 "/><circle style="fill:#F8A805;" cx="210" cy="210" r="140"/></symbol><symbol id="thermometer" viewBox="0 0 512 512"><title>thermometer</title><g> <g> <path d="M341.333,288.593V85.333C341.333,38.205,303.128,0,256,0s-85.333,38.205-85.333,85.333v203.259 C144.48,312.03,128,346.091,128,384c0,70.693,57.308,128,128,128s128-57.307,128-128C384,346.091,367.52,312.03,341.333,288.593z M256,469.333c-47.128,0-85.333-38.205-85.333-85.333c0-24.637,10.441-47.492,28.455-63.615l14.212-12.72V85.333 c0-23.564,19.103-42.667,42.667-42.667s42.667,19.102,42.667,42.667v222.332l14.212,12.72 c18.014,16.123,28.455,38.977,28.455,63.615C341.333,431.128,303.128,469.333,256,469.333z"/> </g> </g><g> <g> <rect x="234.667" y="170.667" width="42.667" height="256"/> </g> </g><g> <g> <circle cx="256" cy="384" r="64"/> </g> </g></symbol><symbol id="humidity" viewBox="0 0 511.448 511.448"><title>humidity</title><path style="fill:#2196F3;" d="M344.556,112.216C318.38,78.84,291.34,44.344,269.516,7.32c-5.76-9.76-21.824-9.76-27.552,0 c-21.856,37.024-48.896,71.52-75.072,104.896c-53.056,67.68-103.168,131.616-103.168,207.232c0,105.888,86.112,192,192,192 s192-86.112,192-192C447.724,243.832,397.612,179.896,344.556,112.216z"/><g> <path style="fill:#FAFAFA;" d="M207.724,287.448c-26.464,0-48-21.536-48-48s21.536-48,48-48s48,21.536,48,48 S234.188,287.448,207.724,287.448z M207.724,223.448c-8.832,0-16,7.168-16,16s7.168,16,16,16s16-7.168,16-16 S216.556,223.448,207.724,223.448z"/> <path style="fill:#FAFAFA;" d="M303.724,447.448c-26.464,0-48-21.536-48-48s21.536-48,48-48s48,21.536,48,48 S330.188,447.448,303.724,447.448z M303.724,383.448c-8.8,0-16,7.2-16,16s7.2,16,16,16s16-7.2,16-16 S312.524,383.448,303.724,383.448z"/> <path style="fill:#FAFAFA;" d="M175.724,415.448c-4.096,0-8.192-1.568-11.328-4.672c-6.24-6.24-6.24-16.384,0-22.624l160-160 c6.24-6.24,16.384-6.24,22.624,0s6.24,16.384,0,22.624l-160,160C183.916,413.88,179.82,415.448,175.724,415.448z"/> </g></symbol><symbol id="water-level" viewBox="0 0 512 512"><title>water-level</title><path style="fill:#76AADB;" d="M452.923,269.804v172.948c0,32.807-26.594,59.402-59.402,59.402H118.479 c-32.807,0-59.402-26.594-59.402-59.402V269.804l41.393-10.348c11.55-2.885,23.68-2.422,34.974,1.349l24.497,8.162 c11.294,3.761,23.424,4.224,34.974,1.339l45.903-11.471c9.964-2.491,20.401-2.491,30.366,0l45.903,11.471 c11.55,2.885,23.68,2.422,34.974-1.339l24.497-8.162c11.294-3.771,23.424-4.234,34.974-1.349L452.923,269.804z"/><path d="M452.923,0c-5.437,0-9.846,4.408-9.846,9.846v247.347l-29.161-7.29c-13.396-3.346-27.394-2.806-40.472,1.561l-24.495,8.162 c-9.53,3.175-19.723,3.565-29.475,1.128l-45.903-11.471c-11.494-2.872-23.645-2.873-35.14,0l-45.902,11.471 c-9.754,2.436-19.946,2.046-29.475-1.128l-24.49-8.16c-13.084-4.369-27.082-4.908-40.48-1.562l-29.159,7.289v-50.424h29.538 c5.437,0,9.846-4.408,9.846-9.846c0-5.438-4.409-9.846-9.846-9.846H68.923v-19.692h49.231c5.437,0,9.846-4.408,9.846-9.846 c0-5.438-4.409-9.846-9.846-9.846H68.923V128h29.538c5.437,0,9.846-4.408,9.846-9.846s-4.409-9.846-9.846-9.846H68.923V88.615 h49.231c5.437,0,9.846-4.408,9.846-9.846s-4.409-9.846-9.846-9.846H68.923V49.231h29.538c5.437,0,9.846-4.408,9.846-9.846 s-4.409-9.846-9.846-9.846H68.923V9.846C68.923,4.408,64.514,0,59.077,0s-9.846,4.408-9.846,9.846v259.958v172.948 c0,3.872,0.335,7.667,0.949,11.368c0.043,0.358,0.108,0.709,0.189,1.055C56.241,487.448,84.537,512,118.479,512h275.042 c38.183,0,69.248-31.065,69.248-69.248V269.804V9.846C462.769,4.408,458.36,0,452.923,0z M443.077,442.752 c0,27.325-22.231,49.556-49.556,49.556H118.479c-20.203,0-37.61-12.159-45.317-29.538h44.992c5.437,0,9.846-4.408,9.846-9.846 c0-5.438-4.409-9.846-9.846-9.846H68.931c-0.001-0.109-0.008-0.216-0.008-0.325v-165.26l33.933-8.483 c9.757-2.438,19.946-2.045,29.476,1.137l24.497,8.163c13.087,4.358,27.082,4.895,40.473,1.55l45.903-11.471 c8.371-2.092,17.219-2.092,25.59,0l45.904,11.471c13.39,3.346,27.385,2.81,40.473-1.55l24.502-8.164 c9.522-3.179,19.714-3.572,29.468-1.136l33.936,8.483V442.752z"/><path d="M156.779,449.162c-0.246-0.601-0.551-1.172-0.906-1.703c-0.353-0.542-0.767-1.044-1.221-1.497 c-0.453-0.453-0.955-0.866-1.497-1.221c-0.532-0.354-1.103-0.66-1.703-0.906c-0.591-0.246-1.21-0.443-1.84-0.561 c-3.2-0.65-6.597,0.404-8.882,2.688c-0.453,0.453-0.866,0.955-1.221,1.497c-0.364,0.532-0.66,1.103-0.906,1.703 c-0.246,0.591-0.443,1.211-0.56,1.841c-0.129,0.63-0.197,1.28-0.197,1.92c0,0.64,0.068,1.29,0.197,1.92 c0.117,0.63,0.314,1.25,0.56,1.851c0.246,0.591,0.542,1.162,0.906,1.694c0.354,0.542,0.768,1.044,1.221,1.497 c0.453,0.453,0.955,0.866,1.498,1.221c0.532,0.364,1.102,0.66,1.702,0.906c0.592,0.246,1.211,0.443,1.841,0.561 c0.63,0.128,1.28,0.197,1.92,0.197c0.639,0,1.29-0.069,1.92-0.197c0.63-0.118,1.25-0.315,1.84-0.561 c0.601-0.246,1.172-0.542,1.703-0.906c0.542-0.354,1.044-0.768,1.497-1.221c1.831-1.831,2.886-4.372,2.886-6.961 c0-0.64-0.069-1.29-0.197-1.92C157.223,450.373,157.025,449.753,156.779,449.162z"/></symbol><symbol id="leaf" viewBox="0 0 400.174 400.174"><title>leaf</title><path style="fill:#45B549;" d="M201.38,88.422c113.12-12.44,149.88-84,150-84c1.856-3.567,6.252-4.953,9.819-3.097 c1.799,0.936,3.126,2.581,3.661,4.537c37.6,127.52,17.08,215.44-26.08,267.6c-16.709,20.331-38.11,36.296-62.36,46.52 c-22.339,9.474-46.587,13.584-70.8,12c-46.36-3.24-88.68-28-108.32-72.36c-5.032-11.34-8.284-23.388-9.64-35.72 c-2.743-24.717,2.083-49.685,13.84-71.6c12.622-23.385,32.719-41.863,57.08-52.48C172.173,93.833,186.611,89.988,201.38,88.422 L201.38,88.422z"/><path style="fill:#009549;" d="M350.58,7.102c0.099-4.019,3.437-7.198,7.456-7.099c4.019,0.099,7.198,3.437,7.099,7.456 c-0.007,0.296-0.033,0.59-0.076,0.883c0,0.36-6.36,84-88,168.64l-0.76,0.8c-19.18,19.673-40.226,37.436-62.84,53.04l49.04,9.12 c3.909,0.943,6.313,4.876,5.37,8.784c-0.854,3.538-4.189,5.902-7.81,5.536l-64-12c-58.36,36.96-157.28,71.08-165.92,151.6 c-0.535,3.985-4.199,6.782-8.184,6.247c-3.793-0.509-6.544-3.868-6.296-7.687c10.32-96.52,108.4-121.36,174.56-163.56l0.92-0.6 c26.403-16.71,50.861-36.311,72.92-58.44l-5.8-57.4c-0.535-3.985,2.262-7.649,6.247-8.184s7.649,2.262,8.184,6.247 c0.022,0.165,0.039,0.331,0.049,0.497l4.4,44.56C345.18,79.142,350.54,7.422,350.58,7.102L350.58,7.102z"/></symbol><symbol id="light-bulb" viewBox="0 0 380 380"><title>light-bulb</title><path id="XMLID_1088_" style="fill:#ACABB1;" d="M142.5,332.5c0,26.234,21.267,47.5,47.5,47.5c26.233,0,47.5-21.266,47.5-47.5V330 h-95V332.5z"/><polygon id="XMLID_1089_" style="fill:#565659;" points="190,300 175,300 142.5,300 142.5,330 237.5,330 237.5,300 205,300 "/><path id="XMLID_1090_" style="fill:#FFE98F;" d="M175,202.904c-23.057-6.548-40-27.777-40-52.904h30c0,13.785,11.215,25,25,25 c0-63.157,0-134.754,0-175C117.858,0,59.375,58.482,59.375,130.625c0,48.407,26.331,90.662,65.451,113.229L142.5,300H175V202.904z"/><path id="XMLID_1091_" style="fill:#FFDA44;" d="M190,0c0,40.246,0,111.843,0,175c13.785,0,25-11.215,25-25h30 c0,25.127-16.943,46.356-40,52.904V300h32.5l17.674-56.146c39.12-22.566,65.451-64.821,65.451-113.229 C320.625,58.482,262.142,0,190,0z"/><path id="XMLID_1092_" style="fill:#FF9811;" d="M165,150h-30c0,25.127,16.943,46.356,40,52.904V300h30v-97.096 c23.057-6.548,40-27.777,40-52.904h-30c0,13.785-11.215,25-25,25C176.215,175,165,163.785,165,150z"/></symbol></svg>